# xmcd
#
# Track frame offsets: 
#        150
#        18540
#        34663
#        49258
#        65618
#        77689
#        94416
#        112845
#        131736
#        151667
#        170682
#        188483
#        203991
#        219120
#        234143
#        257267
#        273100
#        290351
#        305537
#        329920
#
# Disc length: 4688 seconds
#
# Revision: 0
# Processed by: cddbd v1.4PL0 Copyright (c) Steve Scherf et al.
# Submitted via: ExactAudioCopy v0.90a11
#
DISCID=10124e14
DTITLE=Various Artist - Авторитетный. Выпуск 5
DYEAR=1900
DGENRE=
TTITLE0=Киричевский Г. - Таксист
TTITLE1=Звинцов А. - Бродвей
TTITLE2=Бутырка - Девчонка с центра
TTITLE3=Кузнецов А. - Судьба-копеечка
TTITLE4=Лесоповал - Переписка
TTITLE5=Снежная Вера - Ресторанная певица
TTITLE6=Шелег М. - Давай закурим
TTITLE7=Жаров Г. - Киллер-триллер
TTITLE8=Горячев И. - Цвела сирень
TTITLE9=Седой Аскер - Валдай
TTITLE10=Дюмин А. - Судьба
TTITLE11=Север С. - Дожди и туманы
TTITLE12=Бобков С. - Чифирок, кипяток, папиросочка
TTITLE13=Огонек К. - Дорога
TTITLE14=Полотно А. - Пока
TTITLE15=Беркут А. - Улетают журавли
TTITLE16=Ноябрьский С. - Волки
TTITLE17=Крижевский В. - Моя жизнь - как круглый мячик
TTITLE18=Крестовый туз - За рулем
TTITLE19=Кузнецов А. - Жулики
EXTD=
EXTT0=
EXTT1=
EXTT2=
EXTT3=
EXTT4=
EXTT5=
EXTT6=
EXTT7=
EXTT8=
EXTT9=
EXTT10=
EXTT11=
EXTT12=
EXTT13=
EXTT14=
EXTT15=
EXTT16=
EXTT17=
EXTT18=
EXTT19=
PLAYORDER=
